<svg width="53" height="50" viewBox="0 0 53 50" fill="none" xmlns="http://www.w3.org/2000/svg">
  <path d="M0 1.35709e-05C12.9832 1.35709e-05 25.9664 -1.03456e-05 38.9495 5.32117e-06C49.3952 1.79259e-05 56.076 11.1945 51.1645 20.4676L45.4247 31.3045C43.7785 34.4553 40.4861 36.4372 36.9365 36.4372H27.0079L37.1167 17.4646C38.1063 15.6072 36.7654 13.36 34.6704 13.365L13.0667 13.4162C9.36273 13.4162 5.96745 11.3835 4.26982 8.13105L0 1.35709e-05Z" fill="#F4F5F6" />
  <path d="M9.47286 50C12.9377 50 16.1109 48.052 17.6908 44.9551L30.9203 19.0228C31.2915 18.283 30.7575 17.4089 29.9343 17.4089H21.5493C18.6238 17.4089 15.955 19.033 14.6719 21.6213L0 50H9.47286Z" fill="url(#paint0_linear_419_13756)" />
  <path d="M5.91006 47.4562C8.47777 46.351 10.5898 44.4122 11.9025 41.9356C16.0008 34.2038 24.8499 17.4089 24.3889 17.4089H21.5493C18.6238 17.4089 15.955 19.033 14.6719 21.6213L0 50L5.91006 47.4562Z" fill="white" />
  <path d="M0 1.35709e-05C12.9832 1.35709e-05 25.9664 -1.03456e-05 38.9495 5.32117e-06C49.3952 1.79259e-05 56.076 11.1945 51.1645 20.4676L45.4247 31.3045C43.7785 34.4553 40.4861 36.4372 36.9365 36.4372H27.1272L33.4892 33.9335C35.7018 33.0628 37.4949 31.3688 38.4955 29.2041L46.4847 11.9211C47.5265 9.66738 45.8879 7.08906 43.4138 7.08906H13.0667C7.48084 7.08906 0 1.35709e-05 0 1.35709e-05Z" fill="url(#paint1_linear_419_13756)" />
  <defs>
    <linearGradient id="paint0_linear_419_13756" x1="54.4522" y1="0.0455681" x2="10.8579" y2="44.4665" gradientUnits="userSpaceOnUse">
      <stop stop-color="#7E7E7E" />
      <stop offset="1" stop-color="white" />
    </linearGradient>
    <linearGradient id="paint1_linear_419_13756" x1="45.6734" y1="0.83537" x2="35.3456" y2="38.9786" gradientUnits="userSpaceOnUse">
      <stop stop-color="#CBCBCB" />
      <stop offset="1" stop-color="white" />
    </linearGradient>
  </defs>
</svg>