<svg width="371" height="93" viewBox="0 0 371 93" fill="none" xmlns="http://www.w3.org/2000/svg">
  <path d="M39.5666 0.973145H14.1435L0 77.9513H8.48135C14.0138 77.9513 18.7729 74.0365 19.8398 68.6079L23.7453 48.7345H33.6746C54.2968 48.7345 67.7176 40.7924 67.7176 22.4059C67.7176 9.02404 57.6793 0.973145 39.5666 0.973145ZM34.0019 34.3735H26.2549L29.6374 15.6606H37.0571C44.3676 15.6606 49.4959 17.5101 49.4959 24.2554C49.4959 31.7624 43.3856 34.3735 34.0019 34.3735Z" fill="#F1F1F1" />
  <path d="M120.549 75.0153H110.679C107.733 75.0153 105.506 72.3461 106.034 69.4473H105.878C104.161 71.8446 101.742 73.7006 98.6987 74.938C95.6552 76.1753 92.5337 76.794 89.2561 76.794C82.7009 76.794 77.4723 74.8606 73.5704 70.9166C69.6685 66.9726 67.7175 61.7912 67.7175 55.2952C67.7175 46.4791 70.8391 38.7457 77.0041 31.9403C83.2471 25.1349 90.7388 21.8096 99.5571 21.8096C102.601 21.8096 105.41 22.4282 108.063 23.5883C110.639 24.7483 112.433 26.6043 113.448 29.079H113.604L114.888 23.5883H130.418L120.549 75.0153ZM110.092 46.7111C110.092 43.4631 109.078 40.8337 107.127 38.9777C105.098 37.1217 102.523 36.1163 99.245 36.1163C95.187 36.1163 91.5972 37.663 88.3976 40.8337C85.2761 43.9271 83.6373 47.5618 83.6373 51.5831C83.6373 54.8312 84.5738 57.4605 86.5247 59.4712C88.4757 61.4819 91.0509 62.4099 94.3286 62.4099C98.5426 62.4099 102.288 60.8632 105.41 57.6925C108.532 54.5991 110.092 50.8871 110.092 46.7111Z" fill="#F1F1F1" />
  <path d="M190.42 23.5459L155.108 87.0498C153.065 90.7225 149.193 92.9999 144.991 92.9999H135.435L147.223 72.9771L137.142 23.5459H143.68C149.381 23.5459 154.233 27.6971 155.116 33.3296L158.313 53.7365H158.468L170.677 29.8528C172.656 25.9818 176.637 23.5459 180.984 23.5459H190.265H190.42Z" fill="#F1F1F1" />
  <path d="M226.883 23.4009L225.6 30.3727C225.094 33.119 222.7 35.1128 219.908 35.1128H217.337L209.946 75.0573H208.539C201.302 75.0573 195.84 68.4915 197.157 61.3756L202.016 35.1128H194.471L195.754 28.1411C196.26 25.3948 198.654 23.4009 201.447 23.4009H204.172L207.328 6.18213H222.649L219.492 23.4009H226.883Z" fill="#F1F1F1" />
  <path d="M251.535 23.4009L242.071 75.0573H226.883L236.347 23.4009H251.535ZM254.665 6.18213L252.527 17.894H237.339L239.476 6.18213H254.665Z" fill="#F1F1F1" />
  <path d="M312.543 44.1761C312.543 45.7293 312.388 47.4379 312.077 49.3018C310.678 57.1456 306.793 63.6692 300.5 68.9502C294.206 74.2311 287.058 76.794 279.132 76.794C272.139 76.794 266.545 74.7748 262.271 70.7364C257.998 66.698 255.822 61.2617 255.822 54.4274C255.822 52.7189 255.978 51.0103 256.366 49.3018C257.765 41.458 261.572 34.9344 267.866 29.6534C274.159 24.3724 281.308 21.8096 289.233 21.8096C296.226 21.8096 301.82 23.8288 306.094 27.8672C310.367 31.9056 312.543 37.3419 312.543 44.1761ZM296.77 46.6613C296.77 43.7101 295.838 41.225 293.895 39.2058C291.953 37.1866 289.544 36.2546 286.514 36.2546C282.551 36.2546 279.054 37.8855 276.024 41.0696C272.994 44.2538 271.518 47.9039 271.518 51.9423C271.518 54.8934 272.45 57.3786 274.392 59.3978C276.335 61.417 278.744 62.3489 281.774 62.3489C285.737 62.3489 289.233 60.718 292.263 57.5339C295.294 54.3498 296.77 50.6997 296.77 46.6613Z" fill="#F1F1F1" />
  <path d="M371 35.9176C371 38.0269 370.765 40.2925 370.218 42.5581L364.195 75.0573H348.631L353.871 46.6205C354.262 44.7455 354.419 43.2612 354.419 42.2456C354.419 38.0269 352.15 35.8395 347.692 35.8395C344.407 35.8395 341.904 36.777 340.262 38.7301C338.619 40.605 337.446 43.3393 336.821 46.7767L331.58 75.0573H316.016L326.309 21.2455H330.942C336.11 21.2455 340.022 25.9175 339.113 31.005L-nan -nanL339.113 31.005C343.102 26.1613 348.553 21.2305 354.888 21.2305C357.156 21.2305 359.424 21.6211 361.771 22.4023C364.117 23.1835 365.994 24.2773 367.324 25.7616C369.749 28.1834 371 31.5427 371 35.9176Z" fill="#F1F1F1" />
</svg>